<?xml version="1.0" standalone="no"?>
<!DOCTYPE svg PUBLIC "-//W3C//DTD SVG 20010904//EN"
 "http://www.w3.org/TR/2001/REC-SVG-20010904/DTD/svg10.dtd">
<svg version="1.0" xmlns="http://www.w3.org/2000/svg"
 width="225.000000pt" height="225.000000pt" viewBox="0 0 225.000000 225.000000"
 preserveAspectRatio="xMidYMid meet">
<metadata>
Created by potrace 1.10, written by Peter Selinger 2001-2011
</metadata>
<g transform="translate(0.000000,225.000000) scale(0.050000,-0.050000)"
fill="#787878" stroke="none">
<path d="M468 4453 c-703 -230 -528 -1306 212 -1302 588 3 887 687 491 1126
-154 169 -476 250 -703 176z m362 -190 c259 -118 394 -398 291 -601 -165 -324
-488 -398 -756 -174 -32 28 -66 44 -74 36 -8 -8 -12 -5 -9 6 4 11 -11 52 -31
90 -86 160 -91 219 -30 341 133 265 399 397 609 302z"/>
<path d="M3584 4443 c-369 -131 -540 -553 -367 -909 325 -669 1307 -408 1259
333 -29 439 -472 725 -892 576z m364 -171 c243 -101 404 -390 324 -581 -175
-418 -654 -445 -890 -51 -182 305 235 770 566 632z"/>
<path d="M1380 3963 c0 -10 31 -39 70 -65 83 -58 82 -85 -10 -171 l-70 -66
879 0 879 -1 -64 66 c-80 82 -80 106 0 188 l64 66 -874 0 c-483 0 -874 -8
-874 -17z"/>
<path d="M520 2250 c0 -909 2 -928 85 -800 56 87 71 87 156 -1 l69 -71 14 76
c18 98 17 1467 0 1586 l-14 89 -55 -59 c-30 -33 -55 -66 -55 -75 0 -39 -63 -8
-111 55 -30 39 -62 70 -71 70 -10 0 -18 -381 -18 -870z"/>
<path d="M3653 3016 c-7 -58 -13 -403 -13 -766 0 -363 6 -708 13 -766 l13
-106 78 76 79 76 64 -75 c34 -41 70 -75 78 -75 8 0 15 392 15 870 0 479 -6
870 -13 870 -7 0 -43 -33 -81 -73 l-69 -73 -75 74 -76 74 -13 -106z"/>
<path d="M520 1330 c-749 -194 -613 -1310 160 -1310 594 0 888 685 482 1126
-152 164 -420 241 -642 184z m286 -197 c297 -127 425 -448 271 -681 -69 -105
-223 -232 -280 -232 -21 0 -55 -11 -77 -25 -32 -20 -48 -20 -80 0 -22 14 -54
25 -72 25 -130 0 -387 307 -388 463 -1 259 398 547 626 450z"/>
<path d="M3675 1337 c-363 -81 -608 -477 -508 -821 211 -725 1267 -624 1310
125 25 447 -373 793 -802 696z m321 -229 c159 -79 304 -281 304 -423 0 -145
-210 -429 -338 -457 -29 -6 -72 -21 -97 -33 -33 -16 -57 -16 -90 0 -25 12 -68
27 -97 33 -71 15 -224 154 -286 261 -204 347 239 801 604 619z"/>
<path d="M1380 831 c0 -5 37 -44 82 -86 l82 -77 -82 -57 c-45 -31 -82 -64 -82
-74 0 -9 392 -17 870 -17 479 0 870 7 870 16 0 9 -27 36 -60 61 -76 56 -76 95
4 177 l64 66 -874 0 c-481 0 -874 -4 -874 -9z"/>
</g>
</svg>
